<mxfile host="app.diagrams.net" modified="2023-04-04T02:32:00.198Z" agent="Mozilla/5.0 (Windows NT 10.0; Win64; x64) AppleWebKit/537.36 (KHTML, like Gecko) Chrome/111.0.0.0 Safari/537.36" version="21.1.4" etag="un-cvVpa6IgtpUDHAW0C" type="github">
  <diagram name="Page-1" id="pC2bopM8Vd9lJrHxJ41g">
    <mxGraphModel>
      <root>
        <mxCell id="0" />
        <mxCell id="1" parent="0" />
      </root>
    </mxGraphModel>
  </diagram>
</mxfile>
